<?xml version="1.0" encoding="utf-8"?>
<!-- Generator: Adobe Illustrator 16.0.0, SVG Export Plug-In . SVG Version: 6.00 Build 0)  -->
<!DOCTYPE svg PUBLIC "-//W3C//DTD SVG 1.1//EN" "http://www.w3.org/Graphics/SVG/1.1/DTD/svg11.dtd">
<svg version="1.1" id="Capa_1" xmlns="http://www.w3.org/2000/svg" xmlns:xlink="http://www.w3.org/1999/xlink" x="0px" y="0px"
	 width="512px" height="512px" viewBox="0 0 512 512" enable-background="new 0 0 512 512" xml:space="preserve">
<g>
	<path fill="none" stroke="#F2F2F2" stroke-width="2" stroke-miterlimit="10" d="M441.113,371.926l-80.915-20.186
		c-0.302-0.455-0.634-0.895-1.029-1.29l-24.102-24.112v-23.08c2.006-2.039,3.97-4.156,5.88-6.362
		c22.488-25.97,36.01-60.958,38.074-98.517c0.083-1.507,0.159-3.011,0.234-4.514c0.251-4.97,0.488-9.663,0.962-14.399l7.979-79.805
		c2.467-24.667-5.658-49.355-22.292-67.736C349.271,13.542,325.512,3,300.721,3h-89.442c-24.791,0-48.549,10.542-65.184,28.923
		c-16.635,18.381-24.76,43.071-22.293,67.738l7.974,79.75c0.476,4.754,0.715,9.487,0.969,14.499c0.075,1.49,0.15,2.979,0.232,4.469
		c2.065,37.56,15.586,72.547,38.074,98.517c1.91,2.206,3.875,4.321,5.881,6.362v23.08l-24.103,24.111
		c-0.386,0.386-0.711,0.812-1.007,1.254l-80.938,20.225c-34.3,8.574-53.189,29.626-53.189,59.276v57.809
		c0,14.33,11.658,25.987,25.987,25.987h424.639c14.33,0,25.987-11.657,25.987-25.987v-57.81
		C494.307,401.554,475.417,380.502,441.113,371.926L441.113,371.926z M247.153,461.92h17.693c0.617,0,1.227-0.029,1.833-0.071
		l6.225,36.563h-33.808l6.224-36.563C245.927,461.891,246.536,461.92,247.153,461.92L247.153,461.92z M274.246,435.933
		c0,5.184-4.217,9.4-9.399,9.4h-17.693c-5.183,0-9.399-4.217-9.399-9.4v-13.254L256,410.515l18.246,12.164V435.933z
		 M193.521,317.479c18.762,13.412,40.221,20.588,62.479,20.588c22.258,0,43.718-7.176,62.479-20.588v8.859L256,388.818
		l-62.479-62.48V317.479z M287.188,411.37c-0.009-0.005-0.018-0.011-0.026-0.018l-18.144-12.096l57.755-57.754l16.258,16.263
		c-5.486,9.898-18.37,33.086-36.562,65.798c-0.034,0.062-0.105,0.19-0.31,0.24c-0.234,0.057-0.402-0.055-0.458-0.091L287.188,411.37
		L287.188,411.37z M158.394,43.053c13.496-14.913,32.772-23.466,52.886-23.466h89.441c20.114,0,39.39,8.553,52.887,23.466
		c13.495,14.912,20.087,34.943,18.086,54.956l-5.051,50.501c-11.206-26.706-23.604-43.812-24.335-44.808
		c-2.643-3.606-7.672-4.467-11.363-1.945c-21.796,14.88-118.869,16.774-154.441,16.25c-2.4-0.045-4.699,0.97-6.3,2.759
		c-10.164,11.345-18.16,24.101-24.092,35.286l-5.803-58.042C138.305,77.998,144.898,57.966,158.394,43.053L158.394,43.053z
		 M149.541,197.468c-0.081-1.466-0.155-2.932-0.229-4.398c-0.051-1.014-0.104-2.04-0.158-3.067
		c1.787-5.074,12.154-33.037,30.969-55.366c22.95,0.201,116.683,0.051,152.733-15.238c7.108,11.213,22.095,37.462,30,70.414
		c-0.058,1.077-0.111,2.152-0.166,3.215c-0.075,1.479-0.149,2.958-0.231,4.441c-3.821,69.54-50.584,124.011-106.458,124.011
		C200.125,321.479,153.363,267.008,149.541,197.468z M185.228,341.503l57.754,57.754l-18.146,12.098
		c-0.007,0.005-0.014,0.011-0.021,0.015l-18.516,12.345c-0.054,0.037-0.222,0.147-0.458,0.091c-0.204-0.049-0.275-0.179-0.309-0.239
		c-18.191-32.713-31.075-55.899-36.561-65.798L185.228,341.503L185.228,341.503z M34.281,489.013v-57.809
		c0-21.916,13.668-36.446,40.624-43.185l80.696-20.162c4.781,8.635,14.696,26.477,35.435,63.77
		c2.311,4.155,6.286,7.182,10.901,8.298c1.323,0.321,2.668,0.478,4.011,0.478c3.366,0,6.705-0.99,9.552-2.888l5.667-3.779v2.196
		c0,7.589,3.27,14.426,8.474,19.182l-7.371,43.299H113.9v-44.786c0-4.58-3.713-8.293-8.293-8.293s-8.294,3.713-8.294,8.293v44.786
		H43.68C38.497,498.412,34.281,494.196,34.281,489.013z M477.719,489.013c0,5.184-4.216,9.399-9.399,9.399h-53.633v-44.786
		c0-4.58-3.713-8.293-8.294-8.293c-4.58,0-8.293,3.713-8.293,8.293v44.786H289.729l-7.37-43.297
		c5.204-4.756,8.474-11.594,8.474-19.183v-2.195l5.668,3.778c2.848,1.898,6.186,2.889,9.552,2.889c1.343,0,2.689-0.158,4.012-0.479
		c4.615-1.117,8.59-4.142,10.9-8.299c20.717-37.254,30.633-55.098,35.42-63.742l80.709,20.135
		c26.958,6.738,40.626,21.269,40.626,43.184V489.013L477.719,489.013z"/>
</g>
</svg>
