<?xml version="1.0" encoding="utf-8"?>
<!-- Generator: Adobe Illustrator 16.0.0, SVG Export Plug-In . SVG Version: 6.00 Build 0)  -->
<!DOCTYPE svg PUBLIC "-//W3C//DTD SVG 1.1//EN" "http://www.w3.org/Graphics/SVG/1.1/DTD/svg11.dtd">
<svg version="1.1" id="Capa_1" xmlns="http://www.w3.org/2000/svg" xmlns:xlink="http://www.w3.org/1999/xlink" x="0px" y="0px"
	 width="110px" height="86px" viewBox="0 0 110 86" enable-background="new 0 0 110 86" xml:space="preserve">
<path fill="#8CC63F" d="M93.607,4.352H17.343c-6.55,0-11.87,5.122-11.87,11.391v53.175c0,6.27,5.319,11.392,11.87,11.392h76.264
	c6.551,0,11.866-5.122,11.866-11.392V15.743C105.474,9.473,100.158,4.352,93.607,4.352z M93.607,70.234H17.343
	c-0.968,0-1.806-0.616-1.806-1.316V22.783l34.481,29.12c0.711,0.614,1.608,0.923,2.533,0.923h5.821c0.937,0,1.846-0.309,2.546-0.923
	L95.4,22.783v46.135C95.4,69.618,94.574,70.234,93.607,70.234z M55.476,42.835l-33.56-28.422h67.102L55.476,42.835z"/>
</svg>
