<?xml version="1.0" encoding="utf-8"?>
<!-- Generator: Adobe Illustrator 16.0.0, SVG Export Plug-In . SVG Version: 6.00 Build 0)  -->
<!DOCTYPE svg PUBLIC "-//W3C//DTD SVG 1.1//EN" "http://www.w3.org/Graphics/SVG/1.1/DTD/svg11.dtd">
<svg version="1.1" id="Capa_1" xmlns="http://www.w3.org/2000/svg" xmlns:xlink="http://www.w3.org/1999/xlink" x="0px" y="0px"
	 width="512px" height="512px" viewBox="0 0 512 512" enable-background="new 0 0 512 512" xml:space="preserve">
<g>
	<g>
		<path fill="none" stroke="#F2F2F2" stroke-width="3.2134" stroke-miterlimit="10" d="M460.159,102.167
			c0-7.678-3.839-11.518-11.518-11.518h-27.147v-9.048c0-5.485-1.778-10.009-5.348-13.574c-3.565-3.564-7.813-5.346-12.75-5.346
			H91.617c-4.936,0-9.187,1.782-12.751,5.346c-3.564,3.565-5.346,8.09-5.346,13.574v348.799c0,5.483,1.782,10.009,5.346,13.573
			c3.565,3.564,7.815,5.348,12.751,5.348h311.78c4.937,0,9.185-1.783,12.75-5.348c3.565-3.562,5.348-8.09,5.348-13.573v-9.049
			h27.147c3.291,0,6.032-1.233,8.227-3.703c2.194-2.467,3.291-5.347,3.291-8.636v-33.729c0-3.292-1.097-6.169-3.291-8.638
			c-2.194-2.472-4.936-3.707-8.227-3.707h-27.147v-32.901h27.147c7.679,0,11.518-3.839,11.518-11.518v-34.549
			c0-7.68-3.839-11.515-11.518-11.515h-27.147v-32.904h27.147c3.291,0,6.032-1.234,8.227-3.703c2.194-2.467,3.291-5.347,3.291-8.637
			v-33.729c0-3.291-1.097-6.17-3.291-8.637c-2.194-2.468-4.936-3.702-8.227-3.702h-27.147v-32.906h27.147
			c7.679,0,11.518-3.838,11.518-11.517V102.167L460.159,102.167z M332.649,274.098c4.388,1.65,6.582,5.484,6.582,11.517v50.182
			c0,3.288-1.099,6.17-3.292,8.638c-2.193,2.469-4.661,3.701-7.402,3.701h-162.06c-2.743,0-5.209-1.232-7.403-3.701
			c-2.195-2.468-3.291-5.35-3.291-8.638v-50.182c0-6.032,2.193-9.874,6.581-11.517l63.343-29.615
			c-7.678-4.387-13.848-10.831-18.51-19.332c-4.662-8.5-6.992-18.235-6.992-29.203c0-14.807,4.662-27.558,13.986-38.252
			c9.323-10.694,20.291-16.042,32.905-16.042c13.161,0,24.268,5.348,33.316,16.042c9.05,10.695,13.577,23.445,13.577,38.252
			c0,10.968-2.193,20.703-6.581,29.203c-4.386,8.501-10.419,14.945-18.097,19.332L332.649,274.098L332.649,274.098z"/>
	</g>
</g>
</svg>
