<?xml version="1.0" encoding="utf-8"?>
<!-- Generator: Adobe Illustrator 16.0.0, SVG Export Plug-In . SVG Version: 6.00 Build 0)  -->
<!DOCTYPE svg PUBLIC "-//W3C//DTD SVG 1.1//EN" "http://www.w3.org/Graphics/SVG/1.1/DTD/svg11.dtd">
<svg version="1.1" id="Layer_1" xmlns="http://www.w3.org/2000/svg" xmlns:xlink="http://www.w3.org/1999/xlink" x="0px" y="0px"
	 width="480px" height="475.476px" viewBox="0 154.102 480 475.476" enable-background="new 0 154.102 480 475.476"
	 xml:space="preserve">
<path fill="#E74E4E" d="M240.001,500.916c4.185,0,7.577,3.394,7.577,7.577c0,4.188-3.393,7.582-7.577,7.582
	c-4.186,0-7.58-3.394-7.58-7.582C232.421,504.31,235.815,500.916,240.001,500.916z"/>
<path fill="#666666" d="M90.805,289.675h298.386c12.284,0,22.339,10.05,22.339,22.337v145.212v10.364v25.146h-0.109l0.009,0.322
	c0,4.948,0.08,14.831,0.08,19.755c0,4.097-3.349,7.447-7.445,7.447H279.096v31.324h22.938c3.563,0,6.482,2.916,6.482,6.481
	c0,3.568-2.919,6.482-6.482,6.482H177.968c-3.565,0-6.482-2.915-6.482-6.482c0-3.565,2.917-6.481,6.482-6.481h22.938v-31.324H76.024
	c-4.097,0-7.448-3.349-7.448-7.447c0-4.934,0-14.809,0-19.755l0.008-0.322h-0.115v-25.146v-10.364V312.012
	c0-12.284,10.054-22.337,22.339-22.337H90.805z"/>
<path fill="#20D0C2" d="M86.214,305.044h307.571v169.515H86.214V305.044z"/>
<path fill="#807D7D" d="M240.001,500.916c4.185,0,7.577,3.394,7.577,7.577c0,4.188-3.393,7.582-7.577,7.582
	c-4.186,0-7.578-3.394-7.578-7.582C232.423,504.31,235.815,500.916,240.001,500.916z"/>
<path fill="#FFFFFF" d="M134.381,203.451h167.184l44.056,44.055v227.053h-211.24V203.451z"/>
<g>
	<path fill="#FFBA1B" d="M301.564,203.451v44.055h44.055L301.564,203.451z"/>
	<path fill="#FFBA1B" d="M347.285,519.379l-22.655-31.173l-15.633,11.153l-12.845-65.051L354.34,467l-15.627,11.153l22.655,31.173
		L347.285,519.379L347.285,519.379z"/>
</g>
<path fill="#D0D1D4" d="M160.184,316.684h144.803v4.816H160.184V316.684z M160.184,299.152L160.184,299.152h110.917v4.819H160.184
	V299.152z M160.184,290.217L160.184,290.217h144.811v4.819H160.184V290.217z M160.184,281.281L160.184,281.281h144.803v4.819
	H160.184V281.281z M160.184,272.348L160.184,272.348h144.803v4.818H160.184V272.348z M160.184,263.411L160.184,263.411h144.803
	v4.819H160.184V263.411z M160.184,352.427L160.184,352.427h110.917v4.819H160.184V352.427z M160.184,343.491L160.184,343.491
	h144.811v4.819H160.184V343.491z M160.184,334.555L160.184,334.555h144.803v4.819H160.184V334.555z M160.184,325.619
	L160.184,325.619h144.803v4.819H160.184V325.619z"/>
<path fill="#FBB429" d="M285.861,513.527l-5.064-2.924l9.793-16.966l5.064,2.923l-9.795,16.967H285.861z M344.677,402.298
	L344.677,402.298l5.064,2.925l-9.796,16.965l-5.066-2.924l9.796-16.969L344.677,402.298z M368.543,424.453L368.543,424.453
	l2.923,5.066l-16.964,9.796l-2.926-5.064l16.969-9.796L368.543,424.453z M378.134,455.572L378.134,455.572v5.849h-19.589v-5.849
	H378.134z M261.994,491.37L261.994,491.37l-2.922-5.064l16.963-9.796l2.926,5.064l-16.969,9.796H261.994z M252.403,460.253
	L252.403,460.253v-5.849h19.589v5.849H252.403z M259.654,428.505L259.654,428.505l2.926-5.064l16.964,9.794l-2.923,5.064
	l-16.969-9.796L259.654,428.505z M281.809,404.638L281.809,404.638l5.066-2.923l9.796,16.964l-5.064,2.926l-9.796-16.969
	L281.809,404.638z M312.929,395.047L312.929,395.047h5.849v19.59h-5.849V395.047z"/>
</svg>
