<?xml version="1.0" encoding="utf-8"?>
<!-- Generator: Adobe Illustrator 16.0.0, SVG Export Plug-In . SVG Version: 6.00 Build 0)  -->
<!DOCTYPE svg PUBLIC "-//W3C//DTD SVG 1.1//EN" "http://www.w3.org/Graphics/SVG/1.1/DTD/svg11.dtd">
<svg version="1.1" id="Layer_1" xmlns="http://www.w3.org/2000/svg" xmlns:xlink="http://www.w3.org/1999/xlink" x="0px" y="0px"
	 width="480px" height="458.977px" viewBox="0 167.602 480 458.977" enable-background="new 0 167.602 480 458.977"
	 xml:space="preserve">
<path fill="#807D7D" d="M13.208,544.017h453.585v15.54c0,8.545-6.99,15.537-15.539,15.537H28.747
	c-8.545,0-15.539-6.992-15.539-15.537V544.017L13.208,544.017z"/>
<path fill="#666666" d="M177.856,544.017h124.291v4.568c0,2.513-2.057,4.567-4.568,4.567H182.421c-2.513,0-4.566-2.055-4.566-4.567
	L177.856,544.017L177.856,544.017z"/>
<path fill="#807D7D" d="M56.957,298.169h366.089c4.47,0,8.127,3.656,8.127,8.127v224.299c0,4.471-3.656,8.127-8.127,8.127H56.957
	c-4.47,0-8.127-3.656-8.127-8.127V306.296C48.831,301.826,52.487,298.169,56.957,298.169z"/>
<path fill="#FFFFFF" d="M65.914,314.49h348.258v212.239H65.914V314.49z"/>
<path fill="#666666" d="M97.519,538.723h25.321v5.294H97.519V538.723z M357.16,538.723L357.16,538.723h25.321v5.294H357.16V538.723z
	"/>
<path fill="#ECF0F1" d="M130.705,321.134c15.07,0,28.712,6.107,38.589,15.984c9.874,9.874,15.981,23.517,15.981,38.587
	c0,15.069-6.108,28.714-15.981,38.588c-9.877,9.874-23.519,15.982-38.589,15.982s-28.711-6.108-38.587-15.982
	c-9.876-9.874-15.984-23.519-15.984-38.588c0-15.07,6.108-28.714,15.984-38.587C101.993,327.242,115.635,321.134,130.705,321.134z
	 M169.797,405.857L169.797,405.857c-3.442-1.625-7.858-2.931-12.873-3.918c-0.457,0.976-0.942,1.939-1.453,2.892
	c-4.06,7.555-9.822,14.332-17.282,19.679c10.637-1.616,20.159-6.63,27.425-13.896C167.108,409.122,168.505,407.533,169.797,405.857
	L169.797,405.857z M123.221,424.51L123.221,424.51c-7.459-5.347-13.222-12.124-17.282-19.678c-0.508-0.946-0.989-1.905-1.445-2.874
	c-5.006,0.984-9.423,2.287-12.879,3.904c1.292,1.672,2.689,3.26,4.18,4.752C103.062,417.879,112.583,422.893,123.221,424.51
	L123.221,424.51z M88.631,401.545L88.631,401.545c3.714-1.84,8.462-3.322,13.834-4.449c-2.212-6.031-3.456-12.385-3.731-18.771
	h-17.33C81.849,386.809,84.434,394.727,88.631,401.545L88.631,401.545z M81.404,373.121L81.404,373.121h17.322
	c0.274-6.972,1.705-13.901,4.29-20.414c-5.198-1.057-9.835-2.443-13.545-4.16C84.773,355.666,81.87,364.072,81.404,373.121
	L81.404,373.121z M92.625,344.283L92.625,344.283c3.458,1.479,7.753,2.675,12.564,3.585c0.276-0.548,0.562-1.092,0.855-1.631
	c4.042-7.429,9.743-14.082,17.098-19.324c-10.606,1.63-20.098,6.633-27.349,13.883C94.684,341.906,93.626,343.07,92.625,344.283z
	 M138.266,326.913L138.266,326.913c7.357,5.243,13.058,11.896,17.1,19.325c0.296,0.546,0.583,1.095,0.863,1.649
	c4.82-0.91,9.116-2.109,12.562-3.597c-1.005-1.214-2.063-2.379-3.177-3.493C158.366,333.546,148.873,328.543,138.266,326.913
	L138.266,326.913z M171.948,348.56L171.948,348.56c-3.696,1.725-8.333,3.115-13.545,4.172c2.58,6.508,4.008,13.426,4.282,20.39
	h17.323C179.54,364.077,176.639,355.674,171.948,348.56L171.948,348.56z M180.006,378.325L180.006,378.325h-17.331
	c-0.273,6.379-1.515,12.722-3.723,18.748c5.386,1.125,10.137,2.614,13.833,4.464C176.979,394.719,179.561,386.805,180.006,378.325
	L180.006,378.325z M133.307,329.815L133.307,329.815v20.204c6.046-0.09,12.022-0.512,17.53-1.263l-0.022-0.039
	C146.791,341.324,140.954,334.774,133.307,329.815z M133.307,355.224L133.307,355.224v17.897h24.191
	c-0.286-6.669-1.724-13.287-4.316-19.469C146.956,354.595,140.157,355.119,133.307,355.224z M133.307,378.325L133.307,378.325
	v16.142c7.065,0.107,14.075,0.661,20.457,1.662c2.196-5.703,3.438-11.733,3.723-17.804H133.307z M133.307,399.671L133.307,399.671
	v21.898c7.697-5.044,13.562-11.702,17.592-19.197c0.237-0.44,0.468-0.886,0.693-1.333
	C145.876,400.222,139.629,399.767,133.307,399.671z M128.104,421.569L128.104,421.569v-21.896
	c-6.316,0.103-12.557,0.563-18.275,1.384c0.221,0.44,0.45,0.88,0.683,1.315C114.541,409.869,120.407,416.525,128.104,421.569z
	 M128.104,394.471L128.104,394.471v-16.146h-24.179c0.285,6.077,1.531,12.117,3.732,17.825
	C114.042,395.143,121.049,394.586,128.104,394.471z M128.104,373.121L128.104,373.121v-17.902
	c-6.842-0.109-13.638-0.638-19.866-1.588c-2.6,6.187-4.039,12.813-4.324,19.49H128.104z M128.104,350.018L128.104,350.018v-20.202
	c-7.648,4.958-13.484,11.509-17.507,18.901l-0.013,0.024C116.094,349.494,122.064,349.919,128.104,350.018z"/>
<path fill="#FF5B61" d="M87.629,428.364H240.84v5.743c-7.253,10.282-6.057,21.717,0,30.285v5.747H87.629
	C63.694,470.14,63.694,428.365,87.629,428.364L87.629,428.364z"/>
<path fill="#FFFFFF" d="M240.84,464.393c-6.184-10.094-6.651-20.189,0-30.285H87.628c-7.204,0-13.114,6.827-13.114,15.145
	s5.91,15.141,13.114,15.141H240.84L240.84,464.393z"/>
<g>
	<path fill="#DFE1E3" d="M239.372,436.547c0.441-0.811,0.932-1.626,1.467-2.439H87.627c-14.651,0-18.761,23.354-3.982,29.559
		c-10.091-5.463-6.323-24.08,4.268-27.12L239.372,436.547L239.372,436.547z"/>
	<path fill="#DFE1E3" d="M237.858,439.432H77.675c0.295-0.4,0.61-0.781,0.938-1.144h159.763
		C238.192,438.668,238.019,439.049,237.858,439.432L237.858,439.432z M76.335,441.586L76.335,441.586
		c-0.19,0.372-0.369,0.753-0.532,1.143h160.908c0.103-0.381,0.216-0.762,0.339-1.143H76.335z M75.075,444.885L75.075,444.885
		c-0.1,0.376-0.186,0.757-0.26,1.144h161.23c0.051-0.381,0.109-0.762,0.178-1.144H75.075z M74.547,448.184L74.547,448.184
		c-0.023,0.354-0.033,0.71-0.033,1.067l0.001,0.078H235.84c-0.001-0.38,0.005-0.762,0.021-1.145L74.547,448.184L74.547,448.184z
		 M74.656,451.482L74.656,451.482c0.051,0.387,0.113,0.768,0.188,1.144h161.238c-0.054-0.378-0.098-0.762-0.135-1.144H74.656z
		 M75.426,454.783L75.426,454.783c0.134,0.388,0.284,0.768,0.444,1.143h160.905c-0.107-0.38-0.203-0.76-0.292-1.143H75.426z
		 M76.996,458.081L76.996,458.081c0.249,0.396,0.513,0.778,0.792,1.144h160.15c-0.161-0.378-0.315-0.76-0.459-1.144H76.996z
		 M79.808,461.379L79.808,461.379c0.487,0.422,1.001,0.804,1.537,1.145h158.283c-0.225-0.376-0.441-0.757-0.649-1.145H79.808
		L79.808,461.379z"/>
</g>
<path fill="#20D0C2" d="M265.079,470.14H76.653v7.781c8.921,13.928,7.449,29.419,0,41.027v7.782h188.425
	C294.517,526.729,294.517,470.14,265.079,470.14L265.079,470.14z"/>
<path fill="#FFFFFF" d="M76.653,518.947c7.605-13.675,8.18-27.352,0-41.027h188.425c8.86,0,16.131,9.247,16.131,20.516
	c0,11.267-7.271,20.512-16.131,20.512H76.653z"/>
<g>
	<path fill="#DFE1E3" d="M78.458,481.226c-0.545-1.102-1.146-2.203-1.806-3.306h188.425c18.021,0,23.076,31.635,4.898,40.043
		c12.412-7.401,7.777-32.62-5.248-36.738L78.458,481.226L78.458,481.226z"/>
	<path fill="#DFE1E3" d="M80.322,485.131h197c-0.364-0.542-0.75-1.06-1.156-1.551H79.686
		C79.909,484.095,80.122,484.613,80.322,485.131z M278.969,488.051L278.969,488.051c0.234,0.502,0.453,1.018,0.656,1.548H81.732
		c-0.127-0.518-0.268-1.032-0.42-1.548H278.969z M280.519,492.519L280.519,492.519c0.122,0.511,0.228,1.026,0.319,1.55H82.549
		c-0.061-0.517-0.134-1.031-0.217-1.55H280.519z M281.168,496.987L281.168,496.987c0.027,0.48,0.041,0.962,0.041,1.447v0.104H82.803
		c0.004-0.515-0.006-1.032-0.026-1.551H281.168L281.168,496.987z M281.031,501.457L281.031,501.457
		c-0.061,0.521-0.137,1.039-0.229,1.55H82.506c0.066-0.514,0.121-1.032,0.164-1.55H281.031L281.031,501.457z M280.088,505.928
		L280.088,505.928c-0.166,0.526-0.348,1.042-0.545,1.547H81.653c0.131-0.514,0.252-1.028,0.359-1.547H280.088L280.088,505.928z
		 M278.156,510.396L278.156,510.396c-0.307,0.537-0.63,1.055-0.973,1.548H80.221c0.2-0.512,0.388-1.027,0.566-1.548H278.156z
		 M274.699,514.864L274.699,514.864c-0.6,0.569-1.23,1.089-1.889,1.55H78.149c0.276-0.512,0.542-1.026,0.796-1.55H274.699z"/>
</g>
<path fill="#FBB429" d="M221.317,392.332H107.43v4.956c5.392,8.869,4.502,18.729,0,26.12v4.956h113.887
	C239.11,428.363,239.11,392.33,221.317,392.332L221.317,392.332z"/>
<path fill="#FFFFFF" d="M107.43,423.407c4.597-8.706,4.944-17.413,0-26.12h113.887c5.356,0,9.75,5.887,9.75,13.061
	c0,7.175-4.394,13.061-9.75,13.061L107.43,423.407L107.43,423.407z"/>
<g>
	<path fill="#DFE1E3" d="M108.521,399.391c-0.329-0.7-0.692-1.402-1.09-2.103h113.887c10.892,0,13.947,20.14,2.961,25.494
		c7.503-4.712,4.702-20.77-3.171-23.392H108.521z"/>
	<path fill="#DFE1E3" d="M109.647,401.877h119.072c-0.221-0.346-0.454-0.673-0.701-0.987H109.262
		C109.399,401.218,109.527,401.546,109.647,401.877L109.647,401.877z M229.712,403.737L229.712,403.737
		c0.144,0.32,0.276,0.648,0.397,0.984H110.499c-0.075-0.328-0.161-0.656-0.252-0.984H229.712L229.712,403.737z M230.65,406.582
		L230.65,406.582c0.074,0.323,0.137,0.651,0.192,0.984H110.994c-0.037-0.328-0.081-0.656-0.13-0.984H230.65L230.65,406.582z
		 M231.042,409.426L231.042,409.426c0.018,0.307,0.025,0.613,0.025,0.922l-0.001,0.066h-119.92c0.003-0.328-0.002-0.657-0.014-0.988
		H231.042L231.042,409.426z M230.96,412.271L230.96,412.271c-0.037,0.334-0.083,0.662-0.141,0.988H110.968
		c0.038-0.328,0.072-0.656,0.098-0.988H230.96L230.96,412.271z M230.389,415.118L230.389,415.118
		c-0.099,0.335-0.211,0.663-0.329,0.984H110.453c0.079-0.327,0.151-0.655,0.217-0.984H230.389L230.389,415.118z M229.223,417.964
		L229.223,417.964c-0.186,0.341-0.382,0.669-0.588,0.984H109.588c0.119-0.326,0.234-0.654,0.34-0.984H229.223z M227.131,420.809
		L227.131,420.809c-0.362,0.363-0.742,0.692-1.142,0.986H108.333c0.167-0.326,0.327-0.654,0.481-0.986H227.131z"/>
</g>
<path fill="#15BDB1" d="M369.363,239.699H245.349v181.82h124.014c10.2,0,18.544-8.556,18.544-19.013V258.713
	C387.906,248.254,379.563,239.699,369.363,239.699L369.363,239.699z"/>
<path fill="#FFFFFF" d="M364.196,233.46H245.349v181.82h118.848c9.774,0,17.771-8.199,17.771-18.219V251.682
	C381.967,241.658,373.971,233.46,364.196,233.46z"/>
<path fill="#20D0C2" d="M369.363,216.524H245.349v181.821h142.558V235.538C387.906,225.081,379.563,216.525,369.363,216.524
	L369.363,216.524z"/>
<path fill="#15BDB1" d="M372.18,398.345h15.727V235.538c0-9.476-6.85-17.391-15.727-18.793V398.345z"/>
<path fill="#DFE1E3" d="M374.792,411.664H245.349v1.436h127.248C373.364,412.675,374.097,412.195,374.792,411.664z M245.349,400.746
	L245.349,400.746v1.438h135.896c0.137-0.473,0.254-0.952,0.353-1.438H245.349z M245.349,404.386L245.349,404.386v1.437h134.412
	c0.252-0.468,0.486-0.945,0.696-1.437H245.349z M245.349,408.026L245.349,408.026v1.437h131.837c0.415-0.459,0.81-0.938,1.178-1.437
	H245.349z"/>
<path fill="#FFFFFF" d="M339.468,369.157h-46.505v2.825h46.505V369.157z M330.632,374.053L330.632,374.053h-28.831v2.826h28.831
	V374.053z"/>
<path fill="#FED198" d="M391.863,330.437l-16.908-4.879l-24.369,5.379c-1.168,3.195,2.699,6.338,5.855,6.616l18.514-1.453
	l12.951,5.409v1.906l-19.314-4.639l-23.937,6.999c0.381,9.769,6.723,7.259,22.522,3.308l20.729,7.203v2.48l-15.727-3.362
	l-19.793,4.821c-0.229,9.802,7.063,6.833,19.793,5.417l15.727,3.591v3.969l-15.651-0.97l-15.185,4.417
	c-2.426,1.104-1.93,5.766,1.51,6.677l13.6-1.551l15.536,2.04l0.19,15.342c1.297,9.906-4.966,19.862-14.149,21.654l-13.876,0.709
	l-4.1,24.95h34.188l-2.386-30.356c5.17-12.018,15.626-27.626,9.33-41.041c3.256-5.467,2.116-10.524-0.421-13.494
	c2.38-3.411,5.551-9.31,0.342-13.68C396.446,338.759,399.092,335.724,391.863,330.437L391.863,330.437z"/>
<path fill="#F0B97D" d="M359.902,421.52l-4.121,24.951l13.17-25.413L359.902,421.52z"/>
<path fill="#FBB429" d="M396.533,446.248l6.416,80.481h-62.097l9.026-80.481H396.533L396.533,446.248z"/>
<g>
	<path fill="#ECF0F1" d="M394.395,440.516h-41.695v5.955h41.695V440.516z"/>
	<path fill="#ECF0F1" d="M391.547,451.469c1.619,0,2.93,1.312,2.93,2.932c0,1.618-1.311,2.929-2.93,2.929
		c-1.618,0-2.931-1.311-2.931-2.929C388.616,452.78,389.929,451.469,391.547,451.469z"/>
	<path fill="#ECF0F1" d="M392.25,458.993c1.618,0,2.93,1.314,2.93,2.932c0,1.619-1.312,2.93-2.93,2.93s-2.932-1.311-2.932-2.93
		C389.317,460.307,390.632,458.993,392.25,458.993z"/>
</g>
<g>
	<path fill="#FFFFFF" d="M351.59,333.614l4.448-1.165l-0.737-2.085l-4.551,0.902C350.5,331.748,350.613,332.774,351.59,333.614
		L351.59,333.614z"/>
	<path fill="#FFFFFF" d="M346.592,349.985l5.668-2.157l-1.203-3.413l-5.6,1.694C345.208,347.012,345.255,348.408,346.592,349.985
		L346.592,349.985z"/>
	<path fill="#FFFFFF" d="M354.239,364.828l4.94-1.65l-1.169-3.629l-4.83,1.106C352.982,361.541,353.045,363.086,354.239,364.828
		L354.239,364.828z"/>
	<path fill="#FFFFFF" d="M357.36,377.263l3.551-0.994l1.146,4.39l-4.22,1.013C357.838,381.674,355.222,378.791,357.36,377.263z"/>
</g>
<path fill="#FFDEB0" d="M214.606,285.86l-26.226-0.114l-0.509-38.187l25.453,1.29c1.703-3.629,13.157-11.401,16.179-12.476
	l15.846-1.852v8.053l26.509-1.378l27.016,4.747c1.584-0.042,2.812,7.117-5.42,6.706l-21.498-1.071l-13.219,2.492l18.773,0.081
	l25.52,3.901c2.869,0.435,1.18,7.727-6.107,7.913l-18.895-1.936l-19.096,1.983l19.68,1.101l20.409,3.163
	c3.614,0.561,3.081,7.791-4.129,7.198l-16.709-1.373l-19.264,2.603l16.877,1.417l17.484,4.778c1.368,0.373,1.869,6.431-7.78,5.334
	l-11.199-1.272C259.989,290.206,225.435,296.467,214.606,285.86z"/>
<path fill="#F0B97D" d="M214.606,285.86l-26.226-0.114l-0.019-1.405l26.446,0.295c11.607,11.034,44.622,5.09,59.632,3.797
	c0,0,10.406,1.766,15.111,1.377c5.373-0.767,4.259-4.638,3.729-4.913c1.369,0.373,1.869,6.431-7.779,5.334l-11.201-1.272
	C259.989,290.206,225.435,296.467,214.606,285.86L214.606,285.86z"/>
<path fill="#0E7886" d="M187.837,244.64l0.516,44.743l-169.069,0.229c8.092-18.893,18.538-36.533,30.968-52.562L187.837,244.64z"/>
<path fill="#FFFFFF" d="M195.815,245.929l0.694,42.009l-8.129,0.042l-0.695-42.012L195.815,245.929L195.815,245.929z"/>
<path fill="#ECF0F1" d="M179.293,279.732c0.023,2.311-1.785,4.199-4.034,4.223c-2.25,0.024-4.093-1.83-4.114-4.138
	c-0.022-2.311,1.785-4.202,4.035-4.223C177.429,275.571,179.272,277.423,179.293,279.732z"/>
<g>
	<path fill="#FFFFFF" d="M293.756,245.732l5.008,0.548c0.469,1.077,0.458,1.854,0.146,2.449l-5.701-0.328L293.756,245.732z"/>
	<path fill="#FFFFFF" d="M298.07,257.92l5.006,0.548c0.469,1.079,0.457,1.855,0.146,2.45l-5.7-0.328L298.07,257.92z"/>
	<path fill="#FFFFFF" d="M294.304,270.318l5.009,0.549c0.469,1.077,0.457,1.854,0.145,2.449l-5.701-0.328L294.304,270.318
		L294.304,270.318z"/>
	<path fill="#FFFFFF" d="M287.981,284.047l5.008,1.082c0.469,1.126,0.458,1.903,0.146,2.463l-5.701-0.936L287.981,284.047
		L287.981,284.047z"/>
</g>
</svg>
