<?xml version="1.0" encoding="utf-8"?>
<!-- Generator: Adobe Illustrator 16.0.0, SVG Export Plug-In . SVG Version: 6.00 Build 0)  -->
<!DOCTYPE svg PUBLIC "-//W3C//DTD SVG 1.1//EN" "http://www.w3.org/Graphics/SVG/1.1/DTD/svg11.dtd">
<svg version="1.1" id="Capa_1" xmlns="http://www.w3.org/2000/svg" xmlns:xlink="http://www.w3.org/1999/xlink" x="0px" y="0px"
	 width="512px" height="512px" viewBox="0 0 512 512" enable-background="new 0 0 512 512" xml:space="preserve">
<g>
	<g>
		<path fill="none" stroke="#F2F2F2" stroke-width="2" stroke-miterlimit="10" d="M284.057,512c-2.873,0-5.564-1.78-6.603-4.64
			c-0.322-0.911-30.46-89.027,73.369-141.229c-32.311-32.283-157.42-166.574-157.42-309.709c0-3.869,3.14-7.009,7.009-7.009
			c3.869,0,7.009,3.14,7.009,7.009c0,154.714,158.696,305.111,160.307,306.598c1.711,1.598,2.51,3.952,2.117,6.266
			c-0.393,2.313-1.906,4.289-4.052,5.242c-103.128,46.23-76.341,124.772-75.149,128.095c1.305,3.645-0.588,7.653-4.232,8.972
			C285.641,511.874,284.842,512,284.057,512z"/>
		<path fill="none" stroke="#F2F2F2" stroke-width="2" stroke-miterlimit="10" d="M116.782,512c-0.785,0-1.57-0.141-2.355-0.406
			c-3.63-1.304-5.537-5.299-4.261-8.958c1.177-3.322,27.559-82.06-75.136-128.108c-2.145-0.953-3.658-2.916-4.051-5.229
			c-0.378-2.313,0.406-4.668,2.117-6.266c1.598-1.486,160.307-151.883,160.307-306.598c0-3.869,3.14-7.009,7.009-7.009
			c3.869,0,7.009,3.14,7.009,7.009c0,143.136-125.109,277.426-157.42,309.709c103.83,52.217,73.691,140.318,73.369,141.229
			C122.347,510.22,119.656,512,116.782,512z"/>
	</g>
	<path fill="none" stroke="#F2F2F2" stroke-width="2" stroke-miterlimit="10" d="M200.413,321.933c-3.869,0-7.009-3.14-7.009-7.009
		V56.422c0-3.869,3.14-7.009,7.009-7.009c3.869,0,7.009,3.14,7.009,7.009V314.91C207.421,318.793,204.281,321.933,200.413,321.933z"
		/>
	<path fill="none" stroke="#F2F2F2" stroke-width="2" stroke-miterlimit="10" d="M200.413,371.346
		c-17.495,0-31.723-14.229-31.723-31.723s14.229-31.723,31.723-31.723s31.722,14.229,31.722,31.723S217.893,371.346,200.413,371.346
		z M200.413,321.933c-9.756,0-17.705,7.935-17.705,17.704c0,9.771,7.934,17.705,17.705,17.705c9.77,0,17.704-7.934,17.704-17.705
		C218.117,329.867,210.169,321.933,200.413,321.933z"/>
	<path fill="none" stroke="#F2F2F2" stroke-width="2" stroke-miterlimit="10" d="M449.41,63.431
		c-17.494,0-31.722-14.228-31.722-31.723C417.688,14.214,431.916,0,449.41,0s31.723,14.228,31.723,31.722
		S466.891,63.431,449.41,63.431z M449.41,14.018c-9.756,0-17.704,7.934-17.704,17.705s7.935,17.705,17.704,17.705
		c9.771,0,17.705-7.934,17.705-17.705S459.167,14.018,449.41,14.018z"/>
	<path fill="none" stroke="#F2F2F2" stroke-width="2" stroke-miterlimit="10" d="M347.234,512H53.576
		c-3.869,0-7.009-3.14-7.009-7.009s3.14-7.009,7.009-7.009h293.658c3.869,0,7.01,3.14,7.01,7.009S351.118,512,347.234,512z"/>
	<path fill="none" stroke="#F2F2F2" stroke-width="2" stroke-miterlimit="10" d="M449.41,263.016c-3.868,0-7.009-3.14-7.009-7.009
		c0-119.81-97.466-217.275-217.275-217.275c-3.869,0-7.009-3.14-7.009-7.009c0-3.869,3.14-7.009,7.009-7.009
		c127.534,0,231.294,103.76,231.294,231.293C456.42,259.876,453.279,263.016,449.41,263.016z"/>
	<path fill="none" stroke="#F2F2F2" stroke-width="2" stroke-miterlimit="10" d="M225.126,63.431h-49.413
		c-3.869,0-7.009-3.14-7.009-7.009V7.009c0-3.869,3.14-7.009,7.009-7.009h49.413c3.869,0,7.009,3.14,7.009,7.009v49.413
		C232.135,60.305,228.995,63.431,225.126,63.431z M182.708,49.413h35.395V14.018h-35.395V49.413z"/>
	<path fill="none" stroke="#F2F2F2" stroke-width="2" stroke-miterlimit="10" d="M474.109,312.429h-49.412
		c-3.869,0-7.009-3.14-7.009-7.009v-49.413c0-3.869,3.14-7.009,7.009-7.009h49.412c3.869,0,7.01,3.14,7.01,7.009v49.413
		C481.119,309.289,477.993,312.429,474.109,312.429z M431.706,298.41h35.395v-35.395h-35.395V298.41L431.706,298.41z"/>
	<path fill="none" stroke="#F2F2F2" stroke-width="2" stroke-miterlimit="10" d="M449.41,263.016c-3.868,0-7.009-3.14-7.009-7.009
		V56.422c0-3.869,3.141-7.009,7.009-7.009c3.869,0,7.01,3.14,7.01,7.009v199.571C456.42,259.876,453.279,263.016,449.41,263.016z"/>
</g>
</svg>
