<?xml version="1.0" encoding="utf-8"?>
<!-- Generator: Adobe Illustrator 16.0.0, SVG Export Plug-In . SVG Version: 6.00 Build 0)  -->
<!DOCTYPE svg PUBLIC "-//W3C//DTD SVG 1.1//EN" "http://www.w3.org/Graphics/SVG/1.1/DTD/svg11.dtd">
<svg version="1.1" id="Capa_1" xmlns="http://www.w3.org/2000/svg" xmlns:xlink="http://www.w3.org/1999/xlink" x="0px" y="0px"
	 width="161px" height="161px" viewBox="47.5 46.5 161 161" enable-background="new 47.5 46.5 161 161" xml:space="preserve">
<path fill="#FFFFFF" d="M53.001,53h150v17.104c-0.656-1.571-1.406-3.264-2.93-4.184c-1.418-0.973-3.199-0.955-4.84-1.113
	c0.018-2.027,0.111-4.184-0.914-6.018c-1.236-2.572-3.838-4.154-6.475-4.986c-1.77-0.205-3.551-0.07-5.326-0.094
	c-37.324-0.006-74.642,0.012-111.966-0.006c-2.953,0.047-5.778,1.723-7.729,3.873c-2.033,2.238-2.092,5.402-1.98,8.25
	c-3.539,0.252-6.533,2.789-7.84,6.012V53z"/>
<path fill="#4C4C4C" d="M62.821,57.576c1.951-2.15,4.776-3.826,7.729-3.873c37.324,0.018,74.642,0,111.966,0.006
	c1.775,0.023,3.557-0.111,5.326,0.094c2.637,0.832,5.238,2.414,6.475,4.986c1.025,1.833,0.932,3.99,0.914,6.018
	c0.117,24.773,0.076,49.547,0.082,74.32c-0.076,12.932,0.17,25.869-0.193,38.789c-0.1-4.711-0.023-9.422-0.293-14.127
	c-1.055,3.621-4.283,6.703-8.215,6.621c-38.672,0.023-77.349-0.006-116.021,0.018c-4.278,0.158-7.981-2.977-9.411-6.867
	c-0.182,4.764-0.17,9.533-0.164,14.297c-0.428-3.516-0.105-7.066-0.223-10.594c0-33.814-0.041-67.629,0.047-101.438
	C60.729,62.979,60.789,59.814,62.821,57.576z"/>
<path fill="#D9D9D9" d="M195.231,64.807c1.641,0.158,3.422,0.141,4.84,1.113c1.523,0.92,2.273,2.613,2.93,4.184v118.541
	c-0.539,2.953-1.617,6.082-4.112,7.951c-2.011,1.512-4.677,1.131-7.026,1.201c-41.801-0.035-83.601-0.006-125.402-0.012
	c-6.217,0.117-11.179-4.898-13.459-10.295V71.838c1.307-3.223,4.301-5.76,7.84-6.012c-0.088,33.809-0.047,67.623-0.047,101.438
	c0.118,3.527-0.205,7.078,0.223,10.594c0.938,4.318,5.08,7.746,9.527,7.676c38.713-0.018,77.426,0.012,116.139-0.012
	c4.189-0.035,7.793-3.557,8.438-7.605c0.363-12.92,0.117-25.857,0.193-38.789C195.308,114.354,195.349,89.58,195.231,64.807z"/>
<path fill="#FF8100" d="M111.291,87.277c5.391-6.123,14.168-8.25,22.031-7.125c6.152,0.808,11.953,3.721,16.418,8.004
	c-2.455,3.012-4.893,6.023-7.307,9.064c-4.5-3.609-10.441-6.076-16.259-4.67c-2.619,0.492-4.992,2.818-4.77,5.613
	c0.252,2.496,2.525,3.996,4.617,4.934c4.757,2.139,9.673,3.902,14.46,5.982c3.955,1.799,7.658,4.658,9.457,8.719
	c2.625,5.912,1.957,13.248-1.945,18.451c-2.959,4.014-7.494,6.627-12.27,7.84c-10.839,2.672-22.933-0.422-31.107-8.027
	c0.018-0.674,0.756-1.096,1.09-1.635c2.35-2.73,4.611-5.531,6.932-8.279c4.605,3.844,10.395,6.814,16.529,6.574
	c2.865-0.158,6.439-1.084,7.406-4.172c1.096-2.631-0.527-5.549-2.965-6.697c-5.174-2.625-10.687-4.512-15.931-6.99
	c-3.762-1.852-7.113-4.764-8.959-8.584C105.748,100.186,106.685,92.322,111.291,87.277z"/>
<path fill="#262626" d="M186.612,170.41c3.932,0.082,7.16-3,8.215-6.621c0.27,4.705,0.193,9.416,0.293,14.127
	c-0.645,4.049-4.248,7.57-8.438,7.605c-38.713,0.023-77.426-0.006-116.139,0.012c-4.447,0.07-8.589-3.357-9.527-7.676
	c-0.006-4.764-0.018-9.533,0.164-14.297c1.43,3.891,5.133,7.025,9.411,6.867C109.263,170.404,147.94,170.434,186.612,170.41z"/>
<path fill="#999999" d="M53.001,187.49c2.28,5.396,7.242,10.412,13.459,10.295c41.801,0.006,83.602-0.023,125.402,0.012
	c2.35-0.07,5.016,0.311,7.026-1.201c2.495-1.869,3.573-4.998,4.112-7.951v4.553c-0.727,3.627-2.467,7.43-6.088,8.941
	c-1.852,0.322-3.75,0.105-5.613,0.152c-41.027,0-82.048-0.018-123.064,0.006c-1.881-0.059-3.92,0.316-5.631-0.662
	c-4.583-2.016-8.672-5.918-9.604-10.998V187.49z"/>
<path fill="#FFFFFF" d="M53.001,190.637c0.932,5.08,5.021,8.982,9.604,10.998c1.711,0.979,3.75,0.604,5.631,0.662
	c41.016-0.023,82.037-0.006,123.064-0.006c1.863-0.047,3.762,0.17,5.613-0.152c3.621-1.512,5.361-5.314,6.088-8.941V203h-150
	V190.637z"/>
</svg>
